HIERARCHY
ROOT hips
{
	OFFSET 0.000000 104.274902 0.000000
	CHANNELS 6 Xposition Yposition Zposition Xrotation Yrotation Zrotation
	JOINT spine
	{
		OFFSET 0.000000 10.181549 0.131524
		CHANNELS 6 Xposition Yposition Zposition Xrotation Yrotation Zrotation
		JOINT chest
		{
			OFFSET 0.000000 9.893990 -1.470706
			CHANNELS 3 Xrotation Yrotation Zrotation
			JOINT upperChest
			{
				OFFSET 0.000000 9.220787 -1.370637
				CHANNELS 3 Xrotation Yrotation Zrotation
				JOINT neck
				{
					OFFSET 0.000000 16.740372 -2.049022
					CHANNELS 6 Xposition Yposition Zposition Xrotation Yrotation Zrotation
					JOINT head
					{
						OFFSET 0.000000 9.617859 1.684976
						CHANNELS 6 Xposition Yposition Zposition Xrotation Yrotation Zrotation
						JOINT headEnd
						{
							OFFSET 0.000000 22.037384 7.501072
							CHANNELS 6 Xposition Yposition Zposition Xrotation Yrotation Zrotation
							End Site
							{
								OFFSET 0.000000 23.106567 -2.828246
							}
						}
					}
				}
				JOINT rightShoulder
				{
					OFFSET -4.570000 11.014877 -2.160840
					CHANNELS 6 Xposition Yposition Zposition Xrotation Yrotation Zrotation
					JOINT rightUpperArm
					{
						OFFSET -10.592867 -0.524796 -2.232105
						CHANNELS 3 Xrotation Yrotation Zrotation
						JOINT rightLowerArm
						{
							OFFSET -27.841497 0.000000 -0.000002
							CHANNELS 3 Xrotation Yrotation Zrotation
							JOINT rightHand
							{
								OFFSET -28.328812 0.000000 -0.000001
								CHANNELS 3 Xrotation Yrotation Zrotation
								JOINT rightThumbProximal
								{
									OFFSET -2.464798 -1.573990 2.681911
									CHANNELS 6 Xposition Yposition Zposition Xrotation Yrotation Zrotation
									JOINT rightThumbIntermediate
									{
										OFFSET -3.244781 -1.873383 1.873376
										CHANNELS 3 Xrotation Yrotation Zrotation
										JOINT rightThumbDistal
										{
											OFFSET -2.646263 -1.527817 1.527818
											CHANNELS 6 Xposition Yposition Zposition Xrotation Yrotation Zrotation
											JOINT rightHandThumb4
											{
												OFFSET -1.994591 -1.151581 1.151575
												CHANNELS 6 Xposition Yposition Zposition Xrotation Yrotation Zrotation
												End Site
												{
													OFFSET -1.860176 -1.142715 1.365483
												}
											}
										}
									}
								}
								JOINT rightIndexProximal
								{
									OFFSET -9.108299 -0.517883 2.259803
									CHANNELS 6 Xposition Yposition Zposition Xrotation Yrotation Zrotation
									JOINT rightIndexIntermediate
									{
										OFFSET -3.699997 0.000000 0.000000
										CHANNELS 3 Xrotation Yrotation Zrotation
										JOINT rightIndexDistal
										{
											OFFSET -2.850006 0.000000 0.000000
											CHANNELS 3 Xrotation Yrotation Zrotation
											JOINT rightHandIndex4
											{
												OFFSET -2.772194 0.000000 0.000000
												CHANNELS 3 Xrotation Yrotation Zrotation
												End Site
												{
													OFFSET -2.772202 0.000000 -0.000484
												}
											}
										}
									}
								}
								JOINT rightMiddleProximal
								{
									OFFSET -9.532501 0.000000 -0.000000
									CHANNELS 6 Xposition Yposition Zposition Xrotation Yrotation Zrotation
									JOINT rightMiddleIntermediate
									{
										OFFSET -3.699997 0.000000 0.000000
										CHANNELS 3 Xrotation Yrotation Zrotation
										JOINT rightMiddleDistal
										{
											OFFSET -2.949997 0.000000 0.000000
											CHANNELS 3 Xrotation Yrotation Zrotation
											JOINT rightHandMiddle4
											{
												OFFSET -2.946594 0.000000 0.000000
												CHANNELS 3 Xrotation Yrotation Zrotation
												End Site
												{
													OFFSET -2.946602 0.000000 -0.000982
												}
											}
										}
									}
								}
								JOINT rightRingProximal
								{
									OFFSET -9.103600 -0.043106 -1.865100
									CHANNELS 6 Xposition Yposition Zposition Xrotation Yrotation Zrotation
									JOINT rightRingIntermediate
									{
										OFFSET -3.379303 0.000000 0.000000
										CHANNELS 3 Xrotation Yrotation Zrotation
										JOINT rightRingDistal
										{
											OFFSET -2.889694 0.000000 0.000000
											CHANNELS 3 Xrotation Yrotation Zrotation
											JOINT rightHandRing4
											{
												OFFSET -2.638802 0.000000 0.000000
												CHANNELS 3 Xrotation Yrotation Zrotation
												End Site
												{
													OFFSET -2.638802 0.000000 0.004218
												}
											}
										}
									}
								}
								JOINT rightLittleProximal
								{
									OFFSET -8.076698 -0.486725 -3.806299
									CHANNELS 6 Xposition Yposition Zposition Xrotation Yrotation Zrotation
									JOINT rightLittleIntermediate
									{
										OFFSET -3.600006 0.000000 0.000000
										CHANNELS 3 Xrotation Yrotation Zrotation
										JOINT rightLittleDistal
										{
											OFFSET -2.099998 0.000000 0.000000
											CHANNELS 3 Xrotation Yrotation Zrotation
											JOINT rightHandPinky4
											{
												OFFSET -2.115791 0.000000 0.000000
												CHANNELS 3 Xrotation Yrotation Zrotation
												End Site
												{
													OFFSET -2.115799 0.000000 0.000174
												}
											}
										}
									}
								}
							}
						}
					}
				}
				JOINT leftShoulder
				{
					OFFSET 4.570400 11.014679 -2.160816
					CHANNELS 6 Xposition Yposition Zposition Xrotation Yrotation Zrotation
					JOINT leftUpperArm
					{
						OFFSET 10.592373 -0.524597 -2.232116
						CHANNELS 3 Xrotation Yrotation Zrotation
						JOINT leftLowerArm
						{
							OFFSET 27.841488 0.000000 0.000001
							CHANNELS 3 Xrotation Yrotation Zrotation
							JOINT leftHand
							{
								OFFSET 28.328808 0.000000 -0.000000
								CHANNELS 3 Xrotation Yrotation Zrotation
								JOINT leftThumbProximal
								{
									OFFSET 2.466103 -1.576202 2.681698
									CHANNELS 6 Xposition Yposition Zposition Xrotation Yrotation Zrotation
									JOINT leftThumbIntermediate
									{
										OFFSET 3.243317 -1.872528 1.872530
										CHANNELS 3 Xrotation Yrotation Zrotation
										JOINT leftThumbDistal
										{
											OFFSET 2.647881 -1.528763 1.528754
											CHANNELS 6 Xposition Yposition Zposition Xrotation Yrotation Zrotation
											JOINT leftHandThumb4
											{
												OFFSET 1.998924 -1.154083 1.154080
												CHANNELS 6 Xposition Yposition Zposition Xrotation Yrotation Zrotation
												End Site
												{
													OFFSET 1.884041 -1.149155 1.337651
												}
											}
										}
									}
								}
								JOINT leftIndexProximal
								{
									OFFSET 9.109299 -0.518005 2.259900
									CHANNELS 6 Xposition Yposition Zposition Xrotation Yrotation Zrotation
									JOINT leftIndexIntermediate
									{
										OFFSET 3.699997 0.000000 0.000000
										CHANNELS 3 Xrotation Yrotation Zrotation
										JOINT leftIndexDistal
										{
											OFFSET 2.850006 0.000000 0.000000
											CHANNELS 3 Xrotation Yrotation Zrotation
											JOINT leftHandIndex4
											{
												OFFSET 2.774895 0.000000 0.000000
												CHANNELS 3 Xrotation Yrotation Zrotation
												End Site
												{
													OFFSET 2.774902 0.000000 -0.000072
												}
											}
										}
									}
								}
								JOINT leftMiddleProximal
								{
									OFFSET 9.533401 0.000000 0.000000
									CHANNELS 6 Xposition Yposition Zposition Xrotation Yrotation Zrotation
									JOINT leftMiddleIntermediate
									{
										OFFSET 3.699997 0.000000 0.000000
										CHANNELS 3 Xrotation Yrotation Zrotation
										JOINT leftMiddleDistal
										{
											OFFSET 2.949997 0.000000 0.000000
											CHANNELS 3 Xrotation Yrotation Zrotation
											JOINT leftHandMiddle4
											{
												OFFSET 2.952896 0.000000 0.000000
												CHANNELS 3 Xrotation Yrotation Zrotation
												End Site
												{
													OFFSET 2.952904 0.000000 0.000165
												}
											}
										}
									}
								}
								JOINT leftRingProximal
								{
									OFFSET 9.104500 -0.042999 -1.865101
									CHANNELS 6 Xposition Yposition Zposition Xrotation Yrotation Zrotation
									JOINT leftRingIntermediate
									{
										OFFSET 3.149994 0.000000 0.000000
										CHANNELS 3 Xrotation Yrotation Zrotation
										JOINT leftRingDistal
										{
											OFFSET 2.950005 0.000000 0.000000
											CHANNELS 3 Xrotation Yrotation Zrotation
											JOINT leftHandRing4
											{
												OFFSET 2.644302 0.000000 0.000000
												CHANNELS 3 Xrotation Yrotation Zrotation
												End Site
												{
													OFFSET 2.644302 0.000000 0.000083
												}
											}
										}
									}
								}
								JOINT leftLittleProximal
								{
									OFFSET 8.077805 -0.486893 -3.806302
									CHANNELS 6 Xposition Yposition Zposition Xrotation Yrotation Zrotation
									JOINT leftLittleIntermediate
									{
										OFFSET 3.600006 0.000000 0.000000
										CHANNELS 3 Xrotation Yrotation Zrotation
										JOINT leftLittleDistal
										{
											OFFSET 2.099998 0.000000 0.000000
											CHANNELS 3 Xrotation Yrotation Zrotation
											JOINT leftHandPinky4
											{
												OFFSET 2.125496 0.000000 0.000000
												CHANNELS 3 Xrotation Yrotation Zrotation
												End Site
												{
													OFFSET 2.125504 0.000000 -0.001254
												}
											}
										}
									}
								}
							}
						}
					}
				}
			}
		}
	}
	JOINT rightUpperLeg
	{
		OFFSET -8.207800 -6.751701 -1.599544
		CHANNELS 6 Xposition Yposition Zposition Xrotation Yrotation Zrotation
		JOINT rightLowerLeg
		{
			OFFSET 0.000004 -44.370152 0.345934
			CHANNELS 3 Xrotation Yrotation Zrotation
			JOINT rightFoot
			{
				OFFSET 0.000004 -44.423664 -3.043535
				CHANNELS 3 Xrotation Yrotation Zrotation
				JOINT rightToes
				{
					OFFSET 0.000001 -8.728691 10.710592
					CHANNELS 3 Xrotation Yrotation Zrotation
					JOINT rightToesEnd
					{
						OFFSET 0.000000 -0.000665 9.278101
						CHANNELS 3 Xrotation Yrotation Zrotation
						End Site
						{
							OFFSET 0.000000 -0.000665 9.278103
						}
					}
				}
			}
		}
	}
	JOINT leftUpperLeg
	{
		OFFSET 8.207800 -6.751701 -1.599544
		CHANNELS 6 Xposition Yposition Zposition Xrotation Yrotation Zrotation
		JOINT leftLowerLeg
		{
			OFFSET 0.000004 -44.370037 0.346940
			CHANNELS 3 Xrotation Yrotation Zrotation
			JOINT leftFoot
			{
				OFFSET 0.000004 -44.423611 -3.044388
				CHANNELS 3 Xrotation Yrotation Zrotation
				JOINT leftToes
				{
					OFFSET 0.000001 -8.728690 10.710592
					CHANNELS 3 Xrotation Yrotation Zrotation
					JOINT leftToesEnd
					{
						OFFSET 0.000000 -0.000680 9.278101
						CHANNELS 3 Xrotation Yrotation Zrotation
						End Site
						{
							OFFSET 0.000000 -0.000680 9.278101
						}
					}
				}
			}
		}
	}
}
MOTION
Frames: 4
Frame Time: 0.033333
2.519920 79.613861 1.761658 57.503328 58.604785 -35.643093 -0.000000 10.181535 0.131529 16.477560 -6.747650 -6.892058 -4.336143 0.300435 -4.105275 1.640215 -0.487088 -4.263165 -0.000001 16.740379 -2.049012 -14.397489 -10.111671 1.298475 0.000004 9.617862 1.684967 0.285124 -47.582725 18.617658 0.000000 22.037369 7.501074 -0.000000 0.000000 0.000000 -4.570002 11.014863 -2.160834 3.890945 13.083874 5.312105 -59.420125 -8.909694 25.017586 -0.000026 47.130901 0.000062 34.331297 5.483671 -49.884970 -2.464795 -1.573998 2.681913 -13.883074 -3.695154 13.911951 7.375304 -23.020813 -2.783637 -2.646276 -1.527790 1.527812 -3.459198 -24.954462 -18.671271 -1.994598 -1.151582 1.151583 0.000001 -0.000005 -0.000000 -9.108303 -0.517874 2.259805 0.078020 -1.754120 -6.493635 0.027745 -0.508185 6.250797 0.018230 -0.412074 5.065109 0.000001 -0.000000 0.000002 -9.532506 0.000014 0.000006 0.068863 -2.722091 5.410667 0.028371 -0.513848 6.320905 0.011454 -0.326852 4.015646 -0.000002 0.000001 0.000002 -9.103604 -0.043095 -1.865098 3.283485 -10.155133 25.110504 0.330885 -1.725727 21.706254 0.456533 -2.012746 25.557043 -0.000001 -0.000000 0.000005 -8.076694 -0.486726 -3.806299 10.235410 -21.028433 34.973253 0.938125 -2.805166 36.976680 2.300849 -4.018223 59.577698 0.000001 0.000001 0.000001 4.570400 11.014681 -2.160816 8.683403 12.515597 -8.978150 51.284530 -32.639780 -20.450438 0.000012 -39.648005 -0.000008 -25.984649 -35.517291 13.302250 2.466103 -1.576202 2.681700 -16.063765 -0.644301 -1.721597 4.401016 20.298397 -9.586107 2.647901 -1.528741 1.528757 -17.892546 -22.034615 5.837301 1.998917 -1.154094 1.154085 -0.000001 0.000003 0.000003 9.109299 -0.518003 2.259898 2.184465 -10.355535 2.710298 0.195028 1.500691 -14.811742 0.025229 0.543682 -5.313035 0.000001 -0.000003 -0.000002 9.533396 0.000000 -0.000001 -0.505249 -0.552168 -9.697497 0.204905 1.537492 -15.183773 0.025195 0.543386 -5.310166 -0.000002 0.000000 0.000000 9.104484 -0.042996 -1.865105 4.540174 16.352511 -18.454833 2.291101 4.646580 -52.476292 1.265485 3.638201 -38.349815 0.000002 0.000001 -0.000001 8.077805 -0.486879 -3.806312 1.152538 25.023776 -17.568525 2.223974 4.594414 -51.642890 1.265296 3.637972 -38.346885 0.000003 0.000001 -0.000002 -8.207806 -6.751710 -1.599550 -66.131900 14.645486 -42.961600 18.430147 -7.471595 -2.346135 42.143483 -23.060481 25.968009 -3.643926 0.000001 0.000005 -0.000000 0.000001 0.000000 8.207798 -6.751703 -1.599547 -67.645818 20.240608 0.638915 76.368161 7.065992 1.514210 -27.227371 22.246765 -7.853787 -2.752128 -0.000005 0.000009 0.000000 0.000001 0.000000 
2.567841 79.592216 1.808136 58.067038 58.956806 -36.495613 -0.000000 10.181547 0.131526 16.097441 -6.593764 -6.871497 -3.791499 0.271287 -4.096694 1.918088 -0.486219 -4.243723 0.000000 16.740374 -2.049006 -14.321191 -10.252762 1.431131 -0.000002 9.617839 1.684978 0.321865 -48.170602 19.057382 0.000002 22.037354 7.501075 -0.000001 0.000000 -0.000000 -4.570002 11.014874 -2.160835 3.585689 12.601654 6.216144 -59.661784 -8.693045 24.149664 0.000027 47.641355 0.000001 34.011617 5.265190 -49.692413 -2.464794 -1.573992 2.681913 -14.856303 -3.745406 12.373079 7.305694 -22.940218 -3.570212 -2.646263 -1.527794 1.527819 -3.488445 -24.921711 -18.835034 -1.994590 -1.151586 1.151572 -0.000000 -0.000003 -0.000000 -9.108308 -0.517889 2.259802 0.082948 -1.712474 -7.008344 0.027749 -0.508188 6.250802 0.018227 -0.412071 5.065101 -0.000000 0.000000 -0.000001 -9.532509 0.000000 0.000001 0.065081 -2.680312 4.895640 0.028375 -0.513866 6.320918 0.011462 -0.326843 4.015632 -0.000001 -0.000001 0.000001 -9.103604 -0.043109 -1.865099 3.061671 -10.125918 23.441178 0.311822 -1.677072 21.064373 0.364575 -1.808033 22.798960 -0.000002 -0.000002 0.000001 -8.076699 -0.486720 -3.806297 9.826184 -21.151144 33.300014 0.902143 -2.756795 36.234960 2.109121 -3.899564 56.801147 -0.000000 -0.000001 -0.000000 4.570403 11.014704 -2.160809 8.373249 11.351954 -9.043959 51.197025 -31.570780 -20.770382 -0.000002 -39.420495 -0.000006 -25.895008 -35.244036 13.594045 2.466092 -1.576193 2.681700 -16.537204 -0.396055 -1.645183 4.302387 20.218147 -8.729769 2.647886 -1.528741 1.528751 -17.892949 -22.035833 5.836843 1.998924 -1.154088 1.154077 -0.000004 -0.000004 -0.000000 9.109302 -0.518024 2.259894 2.338828 -10.448478 3.678201 0.191257 1.486270 -14.666119 0.024390 0.534667 -5.224735 0.000003 -0.000002 -0.000001 9.533407 0.000001 -0.000004 -0.458478 -0.653563 -8.793903 0.201690 1.525533 -15.062760 0.024347 0.534335 -5.221464 -0.000000 -0.000000 -0.000002 9.104511 -0.042995 -1.865104 4.316021 16.337167 -17.517509 2.255262 4.618916 -52.032521 1.269783 3.643625 -38.417502 0.000001 0.000002 -0.000000 8.077824 -0.486898 -3.806308 0.979140 24.997541 -16.737081 2.187365 4.565289 -51.184160 1.269727 3.643546 -38.416720 0.000000 0.000002 -0.000001 -8.207808 -6.751705 -1.599547 -66.061166 14.595271 -43.159176 19.198516 -7.655980 -2.359601 41.774000 -23.113623 26.203189 -3.644376 0.000012 -0.000005 -0.000000 0.000001 0.000000 8.207797 -6.751693 -1.599551 -67.673596 20.136395 0.766387 76.463524 6.622008 1.510810 -27.349310 22.144269 -7.630885 -2.757198 0.000005 0.000006 0.000000 0.000000 0.000000 
2.638968 79.594040 1.879368 58.676967 59.406479 -37.463581 0.000001 10.181555 0.131527 15.719807 -6.434922 -6.899955 -3.199244 0.229797 -4.115798 2.228500 -0.499644 -4.250801 0.000000 16.740372 -2.049023 -14.229980 -10.412413 1.609541 0.000008 9.617857 1.684974 0.456234 -48.785504 19.527967 0.000003 22.037369 7.501079 -0.000000 -0.000000 0.000000 -4.569999 11.014859 -2.160851 3.282253 11.903592 7.287695 -59.972981 -8.296250 23.505398 -0.000043 47.996313 0.000072 34.036089 4.897929 -49.377265 -2.464799 -1.573992 2.681920 -16.767647 -3.814043 9.272051 7.170073 -22.773331 -5.137717 -2.646265 -1.527815 1.527820 -3.546477 -24.855895 -19.161558 -1.994593 -1.151584 1.151573 0.000004 0.000001 -0.000002 -9.108318 -0.517863 2.259809 0.093908 -1.629508 -8.035290 0.027739 -0.508184 6.250804 0.018234 -0.412071 5.065091 -0.000004 0.000001 -0.000000 -9.532518 0.000009 0.000005 0.058687 -2.596885 3.868079 0.028379 -0.513857 6.320901 0.011454 -0.326846 4.015640 0.000000 0.000002 -0.000003 -9.103629 -0.043096 -1.865098 2.611098 -10.022904 20.111562 0.275443 -1.579400 19.783909 0.211065 -1.387513 17.297686 -0.000001 0.000001 0.000001 -8.076723 -0.486728 -3.806299 8.966067 -21.308235 29.948303 0.832284 -2.658940 34.756169 1.744950 -3.635877 51.263623 0.000000 -0.000000 -0.000000 4.570402 11.014668 -2.160825 8.042500 10.126539 -9.120193 51.148565 -30.425061 -21.084567 0.000012 -39.153646 0.000020 -26.048444 -35.115881 13.862273 2.466093 -1.576222 2.681701 -17.540102 0.115095 -1.470686 4.097252 20.039551 -6.884524 2.647881 -1.528740 1.528741 -17.892295 -22.033803 5.837615 1.998921 -1.154082 1.154077 0.000003 -0.000002 -0.000002 9.109302 -0.518017 2.259897 2.680319 -10.624524 5.756518 0.183592 1.456777 -14.368626 0.022770 0.516597 -5.047684 0.000001 0.000000 -0.000001 9.533404 0.000006 -0.000003 -0.352234 -0.863408 -6.856164 0.195250 1.501467 -14.819543 0.022718 0.516173 -5.043551 0.000003 0.000001 -0.000002 9.104497 -0.042994 -1.865101 3.828539 16.277078 -15.495102 2.177733 4.557545 -51.063269 1.278382 3.654424 -38.552613 0.000000 -0.000001 -0.000000 8.077796 -0.486898 -3.806305 0.601435 24.919624 -14.927810 2.108119 4.500592 -50.181707 1.278625 3.654726 -38.556452 0.000001 -0.000001 -0.000003 -8.207795 -6.751698 -1.599538 -65.891477 14.487540 -43.399698 20.059159 -7.880509 -2.366974 41.334908 -23.178527 26.465479 -3.644783 -0.000000 -0.000005 0.000000 0.000000 0.000000 8.207799 -6.751703 -1.599544 -67.608607 20.020111 0.931529 76.533117 6.103087 1.503937 -27.494057 21.957875 -7.359082 -2.816577 0.000018 -0.000008 0.000000 -0.000000 -0.000000 
2.718731 79.666687 1.996025 59.346202 60.007911 -38.507083 0.000004 10.181561 0.131521 15.344457 -6.390668 -6.993675 -2.543160 0.154191 -4.119568 2.585503 -0.545773 -4.241457 0.000000 16.740366 -2.049021 -14.011881 -10.543369 1.681378 -0.000000 9.617858 1.684978 1.393685 -49.255616 20.510846 0.000001 22.037369 7.501074 0.000000 -0.000000 0.000000 -4.570002 11.014873 -2.160845 3.022720 11.102420 8.218133 -60.240076 -8.229896 23.135642 -0.000053 48.555784 0.000081 34.050378 4.606187 -49.176696 -2.464813 -1.574008 2.681915 -19.464243 -3.733795 4.874115 6.986804 -22.531423 -7.351709 -2.646272 -1.527805 1.527817 -3.627860 -24.762197 -19.623183 -1.994597 -1.151584 1.151583 -0.000001 -0.000001 -0.000000 -9.108312 -0.517903 2.259808 0.111954 -1.512488 -9.488334 0.027747 -0.508170 6.250805 0.018229 -0.412080 5.065088 -0.000001 0.000000 0.000005 -9.532503 0.000012 0.000005 0.052195 -2.478646 2.414239 0.028363 -0.513855 6.320916 0.011464 -0.326861 4.015643 -0.000000 0.000000 -0.000002 -9.103601 -0.043130 -1.865102 1.975695 -9.798875 15.405140 0.227727 -1.439915 17.972914 0.064234 -0.771646 9.516873 0.000001 -0.000000 0.000000 -8.076715 -0.486731 -3.806290 7.699266 -21.387981 25.192403 0.737853 -2.517543 32.665373 1.277055 -3.205612 43.434133 0.000000 0.000001 0.000003 4.570400 11.014671 -2.160814 7.715122 8.739439 -9.301189 51.582217 -29.212965 -21.132366 0.000016 -38.935603 0.000009 -25.677072 -34.658227 14.047030 2.466099 -1.576201 2.681705 -19.068129 0.866413 -1.183514 3.792264 19.751118 -4.033354 2.647886 -1.528752 1.528745 -17.891317 -22.030847 5.838784 1.998917 -1.154093 1.154070 0.000001 0.000006 0.000003 9.109299 -0.518013 2.259904 3.218114 -10.849046 8.960781 0.172726 1.413601 -13.933894 0.020528 0.490582 -4.792856 0.000003 -0.000000 0.000000 9.533405 -0.000001 0.000002 -0.174829 -1.169994 -3.873504 0.186154 1.466700 -14.468648 0.020482 0.490026 -4.787414 0.000003 0.000000 -0.000001 9.104502 -0.043012 -1.865096 3.072867 16.124069 -12.367728 2.058532 4.458912 -49.546848 1.290728 3.669832 -38.745993 -0.000003 -0.000003 0.000000 8.077806 -0.486891 -3.806302 0.014693 24.758584 -12.107295 1.986405 4.396570 -48.612680 1.291432 3.670714 -38.756993 -0.000001 0.000000 0.000003 -8.207808 -6.751696 -1.599542 -65.488598 14.327491 -43.728172 20.891508 -8.120643 -2.381080 40.882446 -23.306185 26.795766 -3.645356 0.000003 -0.000007 0.000000 -0.000000 -0.000000 8.207803 -6.751696 -1.599555 -67.341888 19.875917 1.026592 76.465423 5.446416 1.497625 -27.595619 21.793431 -7.027717 -3.047683 -0.000012 0.000000 -0.000000 -0.000002 0.000000 
